<svg width="2190" height="2820" viewBox="0 0 2190 2820" fill="none" xmlns="http://www.w3.org/2000/svg">
<path d="M1604.18 1055.29C1618.79 1063.55 1634.41 1069.88 1650.65 1074.14C1696.7 1086.1 1745.04 1086.17 1791.13 1074.34C1807.62 1070.08 1823.48 1063.67 1838.3 1055.29C1902.68 1018.14 1902.68 957.303 1838.28 920.144C1773.9 882.986 1668.54 882.986 1604.16 920.144C1539.78 957.303 1539.8 1018.14 1604.18 1055.29Z" fill="#0A047A" stroke="#3874FF" stroke-width="2" stroke-linecap="round" stroke-linejoin="round"/>
<path fill-rule="evenodd" clip-rule="evenodd" d="M339 467.654L521.82 151L784.088 302.42L783.617 303.237C782.815 302.781 782.003 302.342 781.181 301.921C757.508 288.809 725.311 291.023 690.192 311.308L690.179 311.315C668.591 324.224 649.28 340.606 633.025 359.802C601.849 395.813 579.402 438.531 567.431 484.633L567.43 484.638C563.221 501.173 561.023 518.156 560.883 535.218L561.883 535.226H560.883C560.883 570.23 571.451 596.613 589.26 612.142L339 467.654Z" fill="#0A047A"/>
<path fill-rule="evenodd" clip-rule="evenodd" d="M36 11.5H286V193.5H285.242C282.831 176.796 270.634 160.635 248.964 148.126C224.628 134.078 192.614 127.083 160.658 127.083C128.701 127.083 96.6892 134.078 72.3555 148.126C50.688 160.635 38.4933 176.796 36.0847 193.5H36V11.5Z" fill="#0A047A"/>
<path d="M587.918 609.568C571.591 594.073 561.883 568.699 561.883 535.226C562.022 518.244 564.21 501.342 568.398 484.884C580.331 438.929 602.707 396.347 633.784 360.452C649.969 341.339 669.197 325.027 690.692 312.174C726.284 291.615 758.628 289.84 782 303.539" stroke="#3874FF" stroke-width="2" stroke-linecap="round" stroke-linejoin="round"/>
<path d="M37.648 190.5C41.0036 175.296 52.7392 160.605 72.855 148.992C121.145 121.114 200.169 121.114 248.464 148.992C268.581 160.605 280.32 175.296 283.678 190.5" stroke="#3874FF" stroke-width="2" stroke-linecap="round" stroke-linejoin="round"/>
<path fill-rule="evenodd" clip-rule="evenodd" d="M588.621 1141.61L565.736 1128.39C565.491 1128.63 565.244 1128.83 565.003 1129C555.003 1136 544.003 1133 537.503 1129C533.819 1126.73 517.83 1117.57 500.167 1107.44H500.164C484.189 1098.28 466.846 1088.33 456.003 1082C450.756 1078.63 450.681 1074.62 453.413 1071.41L429.591 1057.65L409.711 1069.12L561.981 1157.04L588.621 1141.61Z" fill="#FEC810"/>
<path d="M565.734 1128.39C565.489 1128.63 565.242 1128.83 565 1129C555 1136 544 1133 537.5 1129C533.817 1126.73 517.828 1117.57 500.165 1107.44H500.162C484.187 1098.28 466.844 1088.33 456 1082C450.754 1078.63 450.679 1074.62 453.411 1071.41" stroke="#3874FF" stroke-width="2" stroke-linecap="round" stroke-linejoin="round"/>
<path d="M409.715 1069.12V1109.71L561.911 1197.55L561.984 1157.04L409.715 1069.12Z" fill="#3874FF" stroke="#3874FF" stroke-width="2" stroke-linecap="round" stroke-linejoin="round"/>
<path d="M608.722 1130.02V1170.58L561.945 1197.57V1157.02L608.722 1130.02Z" fill="#0A047A" stroke="#3874FF" stroke-width="2" stroke-linecap="round" stroke-linejoin="round"/>
<path d="M751.798 966.3L597.04 1055.66L725.762 1130.02L620.452 1190.82L585.316 1170.55" stroke="#3874FF" stroke-width="2" stroke-linecap="round" stroke-linejoin="round"/>
</svg>
