<svg xmlns="http://www.w3.org/2000/svg" width="156" height="48" fill="none"  xmlns:v="https://vecta.io/nano"><rect width="156" height="48" rx="24" fill="#000"/><path d="M37.446 23.773c-.031-3.384 2.842-5.031 2.973-5.107-1.627-2.313-4.149-2.629-5.036-2.654-2.118-.217-4.173 1.236-5.252 1.236-1.101 0-2.762-1.215-4.553-1.179-2.305.035-4.461 1.336-5.643 3.356-2.44 4.119-.62 10.172 1.718 13.502 1.17 1.631 2.536 3.451 4.325 3.387 1.75-.07 2.404-1.088 4.515-1.088 2.093 0 2.706 1.088 4.531 1.047 1.878-.029 3.061-1.638 4.189-3.283 1.352-1.869 1.894-3.71 1.916-3.804-.044-.015-3.648-1.356-3.683-5.412zM34 13.821c.941-1.148 1.585-2.709 1.406-4.293-1.362.059-3.066.919-4.047 2.041-.868.989-1.643 2.61-1.443 4.135 1.53.111 3.101-.753 4.084-1.883zm28.772 22.258h-2.446l-1.34-4.104H54.33l-1.276 4.104h-2.381l4.614-13.973h2.85l4.636 13.973zm-4.189-5.826l-1.212-3.649c-.128-.373-.368-1.251-.723-2.632h-.043l-.681 2.632-1.19 3.649h3.848zm16.053.663c0 1.714-.475 3.068-1.425 4.062-.851.885-1.907 1.327-3.168 1.327-1.361 0-2.339-.477-2.935-1.43h-.043v5.308H64.77V29.319l-.085-3.317h2.019l.128 1.597h.043c.766-1.203 1.928-1.804 3.487-1.804 1.219 0 2.237.469 3.051 1.409s1.223 2.178 1.223 3.712zm-2.339.082c0-.981-.226-1.789-.681-2.425-.496-.664-1.163-.995-1.999-.995-.566 0-1.081.185-1.541.549s-.762.847-.904 1.442c-.071.277-.107.504-.107.683v1.68c0 .733.231 1.351.691 1.856s1.06.757 1.796.757c.865 0 1.538-.325 2.019-.974s.724-1.507.724-2.571zm14.225-.082c0 1.714-.475 3.068-1.426 4.062-.85.885-1.906 1.327-3.167 1.327-1.361 0-2.339-.477-2.934-1.43h-.043v5.308h-2.296V29.319l-.085-3.317h2.019l.128 1.597h.043c.765-1.203 1.927-1.804 3.487-1.804 1.218 0 2.236.469 3.052 1.409s1.221 2.178 1.221 3.712zm-2.339.082c0-.981-.227-1.789-.682-2.425a2.36 2.36 0 0 0-1.998-.995c-.568 0-1.081.185-1.542.549s-.761.847-.902 1.442c-.07.277-.107.504-.107.683v1.68c0 .733.23 1.351.689 1.856s1.06.757 1.799.757c.865 0 1.538-.325 2.019-.974s.724-1.507.724-2.571zm15.629 1.162c0 1.189-.423 2.156-1.273 2.902-.934.816-2.234 1.223-3.904 1.223-1.542 0-2.778-.29-3.714-.87l.532-1.866c1.008.594 2.114.892 3.319.892.865 0 1.538-.191 2.021-.571s.721-.89.721-1.527a1.92 1.92 0 0 0-.596-1.432c-.395-.387-1.055-.748-1.977-1.081-2.509-.912-3.763-2.249-3.763-4.007 0-1.149.439-2.091 1.319-2.823s2.046-1.1 3.509-1.1c1.304 0 2.388.221 3.252.664l-.574 1.825c-.808-.428-1.721-.643-2.743-.643-.808 0-1.439.194-1.891.581a1.64 1.64 0 0 0-.574 1.265 1.69 1.69 0 0 0 .658 1.368c.382.332 1.077.691 2.085 1.078 1.233.484 2.139 1.05 2.721 1.699s.87 1.456.87 2.422zm7.591-4.477h-2.531v4.892c0 1.244.446 1.866 1.34 1.866a4.2 4.2 0 0 0 1.02-.104l.063 1.7c-.452.165-1.047.248-1.785.248-.907 0-1.615-.27-2.127-.809s-.766-1.445-.766-2.716v-5.079h-1.507v-1.68h1.507v-1.845l2.255-.664V26h2.531v1.682zm11.418 3.275c0 1.549-.454 2.82-1.361 3.815-.951 1.024-2.213 1.534-3.786 1.534-1.517 0-2.724-.49-3.624-1.471s-1.351-2.219-1.351-3.711c0-1.561.463-2.84 1.393-3.835s2.178-1.493 3.752-1.493c1.516 0 2.736.49 3.657 1.472.881.952 1.32 2.182 1.32 3.689zm-2.382.073c0-.929-.203-1.726-.616-2.391-.481-.804-1.169-1.205-2.061-1.205a2.31 2.31 0 0 0-2.106 1.205c-.412.666-.616 1.475-.616 2.433 0 .929.204 1.726.616 2.39.497.804 1.19 1.205 2.085 1.205.877 0 1.565-.409 2.062-1.226.423-.677.636-1.483.636-2.411zm9.846-3.06c-.227-.041-.469-.062-.724-.062-.807 0-1.432.297-1.871.893-.383.525-.574 1.189-.574 1.99v5.287h-2.295l.021-6.903-.086-3.172h2l.084 1.928h.064c.242-.662.624-1.196 1.148-1.596.511-.36 1.064-.54 1.659-.54a3.81 3.81 0 0 1 .574.041v2.135zm10.268 2.592a5.13 5.13 0 0 1-.084 1.015h-6.888c.027.995.36 1.757 1 2.282.58.469 1.331.705 2.252.705 1.02 0 1.951-.159 2.788-.477l.359 1.554c-.978.416-2.132.623-3.464.623-1.603 0-2.861-.46-3.776-1.379s-1.371-2.153-1.371-3.7c0-1.519.426-2.785 1.277-3.794.892-1.077 2.097-1.616 3.613-1.616 1.49 0 2.617.539 3.383 1.616.606.856.911 1.914.911 3.171zm-2.189-.581c.015-.664-.135-1.237-.446-1.721-.397-.623-1.008-.933-1.83-.933-.75 0-1.361.303-1.827.912-.383.484-.61 1.065-.68 1.741l4.783.001zM57.823 13.51c0 1.236-.38 2.166-1.139 2.791-.703.576-1.703.865-2.997.865a14.25 14.25 0 0 1-1.651-.082v-6.752a12.49 12.49 0 0 1 1.944-.143c1.233 0 2.163.261 2.789.784.702.591 1.054 1.436 1.054 2.537zm-1.19.03c0-.801-.218-1.415-.653-1.844s-1.07-.642-1.907-.642a4.93 4.93 0 0 0-.909.071v5.134c.139.021.393.03.762.03.864 0 1.53-.234 2-.702s.706-1.151.706-2.047zm7.501 1.049c0 .761-.223 1.385-.669 1.874-.467.503-1.087.754-1.86.754-.745 0-1.339-.24-1.781-.723s-.662-1.09-.662-1.823c0-.767.227-1.396.684-1.884s1.071-.733 1.844-.733c.745 0 1.344.24 1.797.722.431.468.647 1.073.647 1.812zm-1.171.036c0-.457-.101-.848-.303-1.175-.237-.395-.574-.592-1.012-.592-.453 0-.798.197-1.035.592-.203.327-.303.724-.303 1.195 0 .457.101.848.303 1.175.244.395.585.592 1.024.592.431 0 .769-.201 1.012-.603.209-.333.313-.728.313-1.184zm9.63-2.47l-1.588 4.95h-1.034l-.658-2.149a15.75 15.75 0 0 1-.408-1.599h-.02a11.46 11.46 0 0 1-.408 1.599l-.699 2.149h-1.046l-1.494-4.95h1.16l.574 2.353.345 1.589h.02c.084-.414.223-.941.419-1.578l.721-2.363h.92l.69 2.312.407 1.63h.031c.076-.509.192-1.052.345-1.63l.616-2.312h1.108v-.001zm5.852 4.95h-1.129V14.27c0-.874-.34-1.31-1.023-1.31a1.03 1.03 0 0 0-.815.36 1.26 1.26 0 0 0-.313.848v2.936h-1.129V13.57l-.041-1.416h.992l.053.774h.031c.131-.24.327-.439.585-.598a1.94 1.94 0 0 1 1.023-.278c.474 0 .868.149 1.181.448.39.367.585.914.585 1.64v2.965zm3.112 0h-1.128V9.884h1.128v7.221zm6.643-2.516c0 .761-.223 1.385-.669 1.874-.467.503-1.088.754-1.86.754-.746 0-1.34-.24-1.781-.723s-.662-1.09-.662-1.823c0-.767.227-1.396.684-1.884s1.07-.733 1.843-.733c.746 0 1.344.24 1.798.722.431.468.647 1.073.647 1.812zm-1.172.036c0-.457-.101-.848-.303-1.175-.236-.395-.574-.592-1.011-.592-.454 0-.799.197-1.035.592-.202.327-.303.724-.303 1.195 0 .457.101.848.303 1.175.245.395.585.592 1.024.592.431 0 .768-.201 1.011-.603.21-.333.313-.728.313-1.184zm6.635 2.48H92.65l-.084-.57h-.031c-.347.455-.841.683-1.483.683-.479 0-.867-.15-1.159-.448-.265-.271-.397-.608-.397-1.008 0-.605.258-1.066.779-1.385s1.249-.476 2.189-.468v-.092c0-.652-.351-.978-1.054-.978-.501 0-.942.123-1.323.366l-.229-.722c.472-.284 1.054-.427 1.741-.427 1.327 0 1.992.682 1.992 2.047v1.823c0 .494.025.888.073 1.18zm-1.172-1.701v-.763c-1.245-.021-1.867.312-1.867.997 0 .258.071.452.216.581s.331.193.551.193a1.16 1.16 0 0 0 .69-.229.94.94 0 0 0 .391-.586c.012-.054.018-.119.018-.193zm7.585 1.701h-1.001l-.053-.795h-.031c-.32.605-.865.907-1.63.907a1.93 1.93 0 0 1-1.525-.702c-.404-.468-.605-1.076-.605-1.823 0-.801.219-1.45.658-1.946.425-.462.947-.693 1.567-.693.682 0 1.159.224 1.43.672h.022V9.884h1.129v5.887l.04 1.334zm-1.169-2.087v-.825a1.62 1.62 0 0 0-.031-.347 1.25 1.25 0 0 0-.408-.667c-.21-.18-.463-.27-.755-.27-.421 0-.751.163-.993.489s-.362.743-.362 1.253c0 .489.115.886.347 1.192a1.17 1.17 0 0 0 .986.488 1.1 1.1 0 0 0 .892-.407c.218-.251.324-.553.324-.906zm10.821-.429c0 .761-.222 1.385-.668 1.874-.468.503-1.086.754-1.86.754-.744 0-1.338-.24-1.781-.723s-.663-1.09-.663-1.823c0-.767.228-1.396.684-1.884s1.071-.733 1.845-.733c.744 0 1.344.24 1.796.722.431.468.647 1.073.647 1.812zm-1.169.036c0-.457-.101-.848-.303-1.175-.238-.395-.574-.592-1.013-.592-.452 0-.797.197-1.035.592-.202.327-.303.724-.303 1.195 0 .457.102.848.303 1.175.244.395.585.592 1.024.592.431 0 .77-.201 1.014-.603.207-.333.313-.728.313-1.184zm7.239 2.48h-1.128V14.27c0-.874-.34-1.31-1.024-1.31-.335 0-.605.12-.814.36a1.25 1.25 0 0 0-.313.848v2.936h-1.13V13.57l-.04-1.416h.991l.053.774h.031c.132-.24.328-.439.585-.598.307-.185.648-.278 1.024-.278.473 0 .867.149 1.18.448.391.367.585.914.585 1.64v2.965zm7.595-4.126h-1.243v2.405c0 .611.221.917.658.917a2.03 2.03 0 0 0 .503-.052l.029.835c-.223.082-.516.123-.876.123-.446 0-.793-.132-1.044-.397s-.377-.71-.377-1.335v-2.496h-.742v-.824h.742v-.907l1.106-.325v1.232h1.243v.825h.001zm5.974 4.126h-1.13v-2.814c0-.887-.34-1.331-1.022-1.331-.523 0-.88.257-1.076.772a1.33 1.33 0 0 0-.053.396v2.977h-1.128v-7.22h1.128v2.983h.021c.356-.543.865-.814 1.525-.814.468 0 .854.149 1.161.448.382.373.574.927.574 1.66v2.943zm6.164-2.709c0 .197-.015.363-.042.499h-3.385c.015.489.177.862.49 1.12.287.231.656.346 1.108.346.501 0 .958-.078 1.369-.234l.177.764c-.482.204-1.048.306-1.704.306-.786 0-1.405-.226-1.853-.677s-.673-1.057-.673-1.817c0-.747.207-1.368.626-1.864.438-.529 1.029-.794 1.775-.794.73 0 1.285.265 1.66.794.302.42.452.94.452 1.557zm-1.077-.285a1.45 1.45 0 0 0-.219-.845c-.196-.306-.494-.459-.898-.459a1.08 1.08 0 0 0-.898.448c-.187.238-.298.523-.335.856h2.35z" fill="#fff"/></svg>