<svg xmlns="http://www.w3.org/2000/svg" width="156" height="48" fill="none"  xmlns:v="https://vecta.io/nano"><rect width="156" height="48" rx="24" fill="#000"/><g fill="#fff"><path d="M55.995 13.755c0 .877-.269 1.579-.799 2.103-.609.621-1.402.933-2.374.933a3.3 3.3 0 0 1-2.373-.944 3.14 3.14 0 0 1-.977-2.348c0-.933.325-1.713.977-2.343s1.444-.949 2.373-.949c.462 0 .903.093 1.324.267s.761.411 1.008.702l-.562.554c-.431-.497-1.019-.743-1.77-.743-.678 0-1.265.231-1.764.697-.493.467-.741 1.072-.741 1.815s.247 1.353.741 1.82c.499.461 1.086.697 1.764.697.719 0 1.324-.236 1.801-.702.315-.309.493-.734.54-1.277h-2.342v-.759h3.124a2.11 2.11 0 0 1 .048.476zm4.956-2.629h-2.935v1.995h2.646v.759h-2.646v1.995h2.935v.773h-3.765v-6.295h3.765v.773zm3.497 5.522h-.831v-5.522h-1.8v-.773h4.432v.773h-1.801v5.522zm5.01 0v-6.295h.83v6.295h-.83zm4.506 0h-.824v-5.522h-1.807v-.773h4.438v.773h-1.807v5.522zm10.198-.811c-.636.637-1.424.954-2.363.954-.945 0-1.733-.318-2.369-.954s-.95-1.415-.95-2.338.316-1.702.95-2.338 1.424-.954 2.369-.954c.934 0 1.722.318 2.358.96s.956 1.415.956 2.332c0 .923-.316 1.702-.95 2.338zm-4.118-.528a2.4 2.4 0 0 0 1.754.707c.688 0 1.276-.236 1.749-.707s.719-1.076.719-1.81-.242-1.339-.719-1.81-1.061-.707-1.749-.707a2.4 2.4 0 0 0-1.754.707c-.477.471-.719 1.076-.719 1.81s.242 1.339.719 1.81zm6.233 1.339v-6.295h1.008l3.135 4.896h.036l-.036-1.21v-3.686h.83v6.295h-.866l-3.283-5.137h-.036l.036 1.215v3.922h-.824z" stroke="#fff" stroke-width=".16" stroke-miterlimit="10"/><path d="M78.275 25.84c-2.526 0-4.59 1.877-4.59 4.466 0 2.569 2.064 4.465 4.59 4.465 2.531 0 4.595-1.896 4.595-4.465 0-2.59-2.064-4.466-4.595-4.466zm0 7.173c-1.386 0-2.578-1.117-2.578-2.706 0-1.61 1.192-2.708 2.578-2.708s2.584 1.097 2.584 2.708c0 1.589-1.198 2.706-2.584 2.706zM68.261 25.84c-2.531 0-4.589 1.877-4.589 4.466 0 2.569 2.058 4.465 4.589 4.465s4.589-1.896 4.589-4.465c0-2.59-2.059-4.466-4.589-4.466zm0 7.173c-1.387 0-2.584-1.117-2.584-2.706 0-1.61 1.197-2.708 2.584-2.708s2.578 1.097 2.578 2.708c0 1.589-1.192 2.706-2.578 2.706zm-11.916-5.804v1.898h4.642c-.136 1.061-.499 1.84-1.055 2.384-.677.656-1.733 1.385-3.587 1.385-2.857 0-5.094-2.251-5.094-5.04s2.237-5.04 5.094-5.04c1.545 0 2.668.589 3.498 1.353l1.37-1.337c-1.16-1.082-2.703-1.912-4.868-1.912-3.917 0-7.209 3.112-7.209 6.937s3.292 6.936 7.209 6.936c2.117 0 3.708-.677 4.958-1.948 1.281-1.251 1.68-3.01 1.68-4.43 0-.441-.038-.847-.105-1.185h-6.533zm48.726 1.471c-.378-.999-1.543-2.84-3.917-2.84-2.353 0-4.311 1.81-4.311 4.466 0 2.502 1.938 4.465 4.537 4.465 2.101 0 3.313-1.251 3.812-1.979l-1.559-1.015c-.521.743-1.229 1.235-2.253 1.235-1.018 0-1.748-.456-2.216-1.353l6.118-2.472-.211-.508zm-6.237 1.487a2.48 2.48 0 0 1 2.388-2.604c.799 0 1.476.39 1.702.948l-4.091 1.656zM93.861 34.5h2.011V21.375h-2.011V34.5zm-3.293-7.665H90.5c-.452-.522-1.313-.995-2.405-.995-2.291 0-4.385 1.963-4.385 4.481 0 2.503 2.094 4.451 4.385 4.451 1.092 0 1.953-.476 2.405-1.014h.067v.641c0 1.707-.934 2.625-2.441 2.625-1.229 0-1.991-.866-2.305-1.595l-1.749.713c.504 1.184 1.839 2.641 4.054 2.641 2.358 0 4.348-1.355 4.348-4.65v-8.019h-1.906v.723zm-2.3 6.178c-1.386 0-2.546-1.133-2.546-2.692 0-1.574 1.16-2.722 2.546-2.722 1.366 0 2.443 1.148 2.443 2.722 0 1.559-1.077 2.692-2.443 2.692zm26.22-11.638h-4.81V34.5h2.005v-4.973h2.805c2.227 0 4.412-1.574 4.412-4.077s-2.19-4.075-4.412-4.075zm.052 6.326h-2.857V23.2h2.857c1.498 0 2.353 1.214 2.353 2.25a2.32 2.32 0 0 1-2.353 2.251zm12.399-1.886c-1.45 0-2.957.625-3.576 2.009l1.78.728c.383-.728 1.087-.965 1.832-.965 1.04 0 2.096.61 2.112 1.688v.138c-.363-.205-1.14-.508-2.096-.508-1.917 0-3.87 1.03-3.87 2.953 0 1.759 1.57 2.891 3.335 2.891 1.35 0 2.094-.595 2.562-1.286h.069v1.014h1.937v-5.035c0-2.327-1.78-3.629-4.085-3.629zm-.242 7.192c-.656 0-1.571-.318-1.571-1.112 0-1.016 1.14-1.406 2.127-1.406.883 0 1.297.19 1.834.441-.158 1.215-1.229 2.076-2.39 2.076zm11.384-6.905l-2.305 5.69h-.069l-2.383-5.69h-2.163l3.581 7.951-2.043 4.424h2.096l5.518-12.376h-2.232zM120.001 34.5h2.011V21.375h-2.011V34.5z"/></g><path d="M16.223 10.915c-.316.323-.499.826-.499 1.477v23.221c0 .651.183 1.154.499 1.477l.078.071 13.327-13.007v-.307L16.301 10.839l-.078.076z" fill="url(#A)"/><path d="M34.066 28.491l-4.438-4.338v-.307l4.443-4.338.099.056 5.262 2.923c1.502.829 1.502 2.195 0 3.029l-5.262 2.918-.105.056z" fill="url(#B)"/><path d="M34.17 28.435L29.628 24 16.222 37.089c.499.512 1.312.574 2.237.062l15.711-8.716z" fill="url(#C)"/><path d="M34.17 19.565l-15.711-8.716c-.925-.507-1.738-.445-2.237.067L29.628 24l4.542-4.435z" fill="url(#D)"/><defs><linearGradient id="A" x1="28.445" y1="35.854" x2="10.828" y2="17.811" gradientUnits="userSpaceOnUse"><stop stop-color="#00a0ff"/><stop offset=".007" stop-color="#00a1ff"/><stop offset=".26" stop-color="#00beff"/><stop offset=".512" stop-color="#00d2ff"/><stop offset=".76" stop-color="#00dfff"/><stop offset="1" stop-color="#00e3ff"/></linearGradient><linearGradient id="B" x1="41.388" y1="23.998" x2="15.365" y2="23.998" gradientUnits="userSpaceOnUse"><stop stop-color="#ffe000"/><stop offset=".409" stop-color="#ffbd00"/><stop offset=".775" stop-color="orange"/><stop offset="1" stop-color="#ff9c00"/></linearGradient><linearGradient id="C" x1="31.7" y1="21.589" x2="7.811" y2="-2.879" gradientUnits="userSpaceOnUse"><stop stop-color="#ff3a44"/><stop offset="1" stop-color="#c31162"/></linearGradient><linearGradient id="D" x1="12.848" y1="44.815" x2="23.516" y2="33.889" gradientUnits="userSpaceOnUse"><stop stop-color="#32a071"/><stop offset=".069" stop-color="#2da771"/><stop offset=".476" stop-color="#15cf74"/><stop offset=".801" stop-color="#06e775"/><stop offset="1" stop-color="#00f076"/></linearGradient></defs></svg>