<svg xmlns="http://www.w3.org/2000/svg" width="46" height="18" fill="none"  xmlns:v="https://vecta.io/nano"><rect width="46" height="18" rx="9" fill="#ed2643"/><path d="M6.759 13h3.729c1.96 0 3.004-1.023 3.004-2.412 0-1.291-.925-2.071-1.918-2.118v-.085c.908-.205 1.577-.848 1.577-1.875 0-1.308-.972-2.237-2.898-2.237H6.759V13zm1.845-1.508V9.173h1.547c.886 0 1.436.511 1.436 1.232 0 .656-.447 1.087-1.479 1.087H8.604zm0-3.567V5.764h1.402c.818 0 1.283.422 1.283 1.053 0 .69-.562 1.108-1.317 1.108H8.604zM16.196 13l.648-1.99h3.149l.648 1.99h1.977L19.61 4.273h-2.378L14.219 13h1.977zm1.116-3.43l1.074-3.303h.068l1.074 3.303h-2.216zM23.669 13h1.845V9.906h1.347L28.514 13h2.037l-1.854-3.392c.993-.426 1.543-1.291 1.543-2.484 0-1.734-1.146-2.851-3.128-2.851h-3.443V13zm1.845-4.577V5.781h1.244c1.065 0 1.581.473 1.581 1.342s-.516 1.3-1.572 1.3h-1.253zm11.421-4.151v5.51c0 .997-.699 1.717-1.773 1.717s-1.773-.72-1.773-1.717v-5.51h-1.845V9.94c0 1.909 1.44 3.183 3.618 3.183 2.169 0 3.618-1.274 3.618-3.183V4.273h-1.845z" fill="#fff"/></svg>