<svg width="23" height="20" viewBox="0 0 23 20" fill="none" xmlns="http://www.w3.org/2000/svg">
<path fill-rule="evenodd" clip-rule="evenodd" d="M17.9367 0H5.23189V1.47391H0.814453V8.38742C0.814453 11.0593 3.79658 13.258 6.72296 13.4868C7.68364 14.5161 9.37342 15.2638 10.8774 15.5826V17.3896C9.43918 17.8313 6.87021 18.8692 6.72296 20H16.5929C16.4442 18.8692 13.6136 17.8299 12.1726 17.3896V15.5826C13.6822 15.2638 15.4478 14.5161 16.4099 13.4868C19.3348 13.258 22.1854 11.0593 22.1854 8.38742V1.47391H17.9367V0ZM2.17114 2.78342H5.12896V8.7391C5.12896 9.91422 5.43204 11.0322 5.96527 12.0386C3.75227 11.3338 2.17114 9.51823 2.17114 7.39385V2.78342ZM13.7566 10.0472L11.5493 8.83059L9.33911 10.0472L9.76084 7.47391L7.97385 5.65261L10.4428 5.27663L11.5493 2.93781L12.6529 5.27663L15.1218 5.65261L13.3348 7.47391L13.7566 10.0472ZM17.0375 12.2287C17.5736 11.1766 17.8809 10.0129 17.8809 8.78199V2.82202H20.8459V7.3767C20.8459 9.59686 19.2576 11.4925 17.0375 12.2287Z" fill="white"/>
</svg>
