<svg width="24" height="24" viewBox="0 0 24 24" fill="none" xmlns="http://www.w3.org/2000/svg">
<path fill-rule="evenodd" clip-rule="evenodd" d="M15.7565 11.0002L12.7281 7.70725C12.3567 7.31625 12.3567 6.68425 12.7281 6.29325C13.0996 5.90225 13.7 5.90225 14.0714 6.29325L18.7214 11.2932C19.0929 11.6842 19.0929 12.3162 18.7214 12.7072L14.0714 17.7072C13.8862 17.9022 13.643 18.0002 13.3998 18.0002C13.1566 18.0002 12.9134 17.9022 12.7281 17.7072C12.3567 17.3162 12.3567 16.6842 12.7281 16.2932L15.7565 13.0002H5.94975C5.4244 13.0002 4.99975 12.5522 4.99975 12.0002C4.99975 11.4482 5.4244 11.0002 5.94975 11.0002H15.7565Z" fill="#2EB5C0"/>
</svg>
