<svg width="16" height="16" viewBox="0 0 16 16" fill="none" xmlns="http://www.w3.org/2000/svg">
<mask id="mask0_2897_14182" style="mask-type:alpha" maskUnits="userSpaceOnUse" x="0" y="0" width="16" height="16">
<rect width="16" height="16" fill="#C4C4C4"/>
</mask>
<g mask="url(#mask0_2897_14182)">
<path fill-rule="evenodd" clip-rule="evenodd" d="M2.34313 2.34315C1.95261 2.73367 1.95261 3.36684 2.34313 3.75736L6.58577 8L2.34313 12.2426C1.95261 12.6332 1.95261 13.2663 2.34313 13.6569C2.73366 14.0474 3.36682 14.0474 3.75735 13.6569L7.99999 9.41421L12.2426 13.6569C12.6332 14.0474 13.2663 14.0474 13.6568 13.6569C14.0474 13.2663 14.0474 12.6332 13.6568 12.2426L9.4142 8L13.6568 3.75736C14.0474 3.36683 14.0474 2.73367 13.6568 2.34315C13.2663 1.95262 12.6332 1.95262 12.2426 2.34315L7.99999 6.58579L3.75735 2.34315C3.36682 1.95262 2.73366 1.95262 2.34313 2.34315Z" fill="white"/>
</g>
</svg>
