<svg width="45" height="44" viewBox="0 0 45 44" fill="none" xmlns="http://www.w3.org/2000/svg">
<circle cx="22.5" cy="21.5" r="21.5" fill="white"/>
<path d="M22.283 0C28.1177 0 33.7135 2.31785 37.8393 6.44365C41.9651 10.5695 44.283 16.1652 44.283 22C44.283 27.8348 41.9651 33.4305 37.8393 37.5564C33.7135 41.6822 28.1177 44 22.283 44C16.4482 44 10.8524 41.6822 6.72661 37.5564C2.60081 33.4305 0.282959 27.8348 0.282959 22C0.282959 16.1652 2.60081 10.5695 6.72661 6.44365C10.8524 2.31785 16.4482 0 22.283 0V0ZM12.658 20.625C12.2933 20.625 11.9436 20.7699 11.6857 21.0277C11.4278 21.2856 11.283 21.6353 11.283 22C11.283 22.3647 11.4278 22.7144 11.6857 22.9723C11.9436 23.2301 12.2933 23.375 12.658 23.375H28.5887L22.6845 29.2765C22.5566 29.4043 22.4552 29.5561 22.386 29.7231C22.3168 29.8902 22.2812 30.0692 22.2812 30.25C22.2812 30.4308 22.3168 30.6098 22.386 30.7769C22.4552 30.9439 22.5566 31.0957 22.6845 31.2235C22.8123 31.3513 22.9641 31.4528 23.1311 31.5219C23.2981 31.5911 23.4772 31.6267 23.658 31.6267C23.8388 31.6267 24.0178 31.5911 24.1848 31.5219C24.3518 31.4528 24.5036 31.3513 24.6315 31.2235L32.8815 22.9735C33.0095 22.8458 33.1111 22.694 33.1804 22.527C33.2497 22.3599 33.2854 22.1809 33.2854 22C33.2854 21.8191 33.2497 21.6401 33.1804 21.473C33.1111 21.306 33.0095 21.1542 32.8815 21.0265L24.6315 12.7765C24.5036 12.6487 24.3518 12.5472 24.1848 12.4781C24.0178 12.4089 23.8388 12.3733 23.658 12.3733C23.4772 12.3733 23.2981 12.4089 23.1311 12.4781C22.9641 12.5472 22.8123 12.6487 22.6845 12.7765C22.5566 12.9043 22.4552 13.0561 22.386 13.2231C22.3168 13.3902 22.2812 13.5692 22.2812 13.75C22.2812 13.9308 22.3168 14.1098 22.386 14.2769C22.4552 14.4439 22.5566 14.5957 22.6845 14.7235L28.5887 20.625H12.658Z" fill="url(#paint0_linear_2989_3799)"/>
<defs>
<linearGradient id="paint0_linear_2989_3799" x1="22.283" y1="-2.64732e-06" x2="65.2726" y2="21.5476" gradientUnits="userSpaceOnUse">
<stop stop-color="#0F8092"/>
<stop offset="1" stop-color="#2EB5C0"/>
</linearGradient>
</defs>
</svg>
