<svg width="46" height="46" viewBox="0 0 46 46" fill="none" xmlns="http://www.w3.org/2000/svg">
<g opacity="0.8" clip-path="url(#clip0_3203_2136)">
<circle cx="23.0001" cy="23.0002" r="22" transform="rotate(-179.491 23.0001 23.0002)" fill="#2EB5C0"/>
<path d="M22.8046 44.9992C28.6391 45.051 34.2552 42.783 38.4175 38.694C42.5798 34.605 44.9473 29.0301 44.9992 23.1955C45.051 17.361 42.783 11.7448 38.694 7.58255C34.605 3.42025 29.03 1.05278 23.1955 1.00093C17.361 0.949085 11.7448 3.21712 7.58253 7.3061C3.42023 11.3951 1.05275 16.97 1.0009 22.8046C0.949057 28.6391 3.21709 34.2553 7.30607 38.4176C11.395 42.5799 16.97 44.9473 22.8046 44.9992V44.9992ZM13.3632 24.2895C12.9985 24.2862 12.6501 24.1383 12.3945 23.8781C12.139 23.618 11.9972 23.267 12.0005 22.9023C12.0037 22.5377 12.1517 22.1892 12.4118 21.9337C12.672 21.6781 13.023 21.5364 13.3876 21.5396L29.3178 21.6811L23.4662 15.7274C23.3395 15.5984 23.2394 15.4458 23.1717 15.2781C23.104 15.1105 23.07 14.9312 23.0716 14.7504C23.0732 14.5696 23.1104 14.3909 23.1811 14.2245C23.2517 14.0581 23.3545 13.9072 23.4835 13.7805C23.6124 13.6538 23.7651 13.5537 23.9328 13.486C24.1004 13.4183 24.2797 13.3843 24.4605 13.3859C24.6413 13.3875 24.82 13.4247 24.9864 13.4954C25.1528 13.5661 25.3037 13.6688 25.4304 13.7978L33.6068 22.1208C33.7337 22.2496 33.8339 22.4023 33.9017 22.5699C33.9696 22.7376 34.0037 22.917 34.0021 23.0978C34.0005 23.2787 33.9632 23.4574 33.8924 23.6239C33.8216 23.7903 33.7186 23.9411 33.5895 24.0677L25.2665 32.2441C25.1375 32.3708 24.9848 32.4708 24.8172 32.5385C24.6496 32.6062 24.4702 32.6402 24.2894 32.6386C24.1087 32.637 23.93 32.5998 23.7635 32.5292C23.5971 32.4585 23.4463 32.3557 23.3196 32.2268C23.1929 32.0978 23.0928 31.9451 23.0251 31.7775C22.9574 31.6098 22.9234 31.4305 22.925 31.2497C22.9266 31.0689 22.9638 30.8902 23.0345 30.7238C23.1051 30.5574 23.2079 30.4065 23.3369 30.2798L29.2933 24.431L13.3632 24.2895Z" fill="white"/>
</g>
<defs>
<clipPath id="clip0_3203_2136">
<rect width="44" height="44" fill="white" transform="matrix(0.999961 0.00888558 0.00888558 -0.999961 0.80542 44.8037)"/>
</clipPath>
</defs>
</svg>
