<svg width="45" height="46" viewBox="0 0 45 46" fill="none" xmlns="http://www.w3.org/2000/svg">
<circle cx="22.0673" cy="23.5012" r="21.5" transform="rotate(179.824 22.0673 23.5012)" fill="white"/>
<path d="M22.3504 45.0002C16.5157 45.0181 10.9128 42.7175 6.77437 38.6044C2.63591 34.4913 0.300881 28.9026 0.282954 23.0679C0.265027 17.2332 2.56567 11.6303 6.67878 7.49184C10.7919 3.35338 16.3805 1.01835 22.2153 1.00042C28.05 0.982492 33.6529 3.28314 37.7913 7.39624C41.9298 11.5093 44.2648 17.098 44.2827 22.9327C44.3007 28.7675 42 34.3703 37.8869 38.5088C33.7738 42.6473 28.1852 44.9823 22.3504 45.0002V45.0002ZM31.912 24.3457C32.2767 24.3446 32.626 24.1987 32.8831 23.94C33.1401 23.6814 33.2839 23.3312 33.2828 22.9665C33.2817 22.6018 33.1357 22.2526 32.8771 21.9955C32.6184 21.7384 32.2683 21.5946 31.9036 21.5957L15.9729 21.6447L21.859 15.7251C21.9864 15.5968 22.0874 15.4448 22.1561 15.2775C22.2247 15.1103 22.2598 14.9311 22.2592 14.7503C22.2587 14.5696 22.2225 14.3906 22.1528 14.2238C22.0831 14.057 21.9812 13.9055 21.853 13.7781C21.7248 13.6506 21.5727 13.5497 21.4055 13.481C21.2382 13.4124 21.0591 13.3773 20.8783 13.3778C20.6975 13.3784 20.5186 13.4146 20.3517 13.4843C20.1849 13.554 20.0335 13.6558 19.906 13.7841L11.6814 22.0594C11.5538 22.1875 11.4526 22.3395 11.3838 22.5068C11.315 22.6741 11.2799 22.8533 11.2804 23.0341C11.281 23.215 11.3172 23.394 11.3871 23.5608C11.4569 23.7276 11.559 23.879 11.6874 24.0064L19.9627 32.231C20.0909 32.3584 20.243 32.4594 20.4103 32.5281C20.5775 32.5967 20.7566 32.6318 20.9374 32.6312C21.1182 32.6307 21.2971 32.5945 21.464 32.5248C21.6308 32.4551 21.7822 32.3532 21.9097 32.225C22.0371 32.0968 22.1381 31.9447 22.2068 31.7774C22.2754 31.6102 22.3105 31.4311 22.3099 31.2503C22.3094 31.0695 22.2732 30.8906 22.2035 30.7237C22.1338 30.5569 22.0319 30.4055 21.9037 30.278L15.9814 24.3947L31.912 24.3457Z" fill="url(#paint0_linear_2989_3799)"/>
<defs>
<linearGradient id="paint0_linear_2989_3799" x1="22.3504" y1="45.0002" x2="-20.7052" y2="23.5848" gradientUnits="userSpaceOnUse">
<stop stop-color="#0F8092"/>
<stop offset="1" stop-color="#2EB5C0"/>
</linearGradient>
</defs>
</svg>
